HIERARCHY
ROOT root
{
	OFFSET	0	13.1	24.9
	CHANNELS 6  Xposition Yposition Zposition Xrotation Yrotation Zrotation
	JOINT spine_1
	{
		OFFSET	0	9.99999	0
		CHANNELS 3  Xrotation Yrotation Zrotation
		JOINT spine_2
		{
			OFFSET	0	112	-10
			CHANNELS 3  Xrotation Yrotation Zrotation
			JOINT spine_3
			{
				OFFSET	0	206.5	19.3
				CHANNELS 3  Xrotation Yrotation Zrotation
				JOINT spine_4
				{
					OFFSET	0	110.4	14.6
					CHANNELS 3  Xrotation Yrotation Zrotation
					JOINT neck_1
					{
						OFFSET	0	71.8	-50.3
						CHANNELS 3  Xrotation Yrotation Zrotation
						JOINT neck_2
						{
							OFFSET	0	86.2	-25.8
							CHANNELS 3  Xrotation Yrotation Zrotation
							JOINT head_ee
							{
								OFFSET	0	179.8	-8.7
								CHANNELS 3  Xrotation Yrotation Zrotation
								End Site
								{
									OFFSET	1	0	0
								}
							}
						}
					}
					JOINT left_clavicle
					{
						OFFSET	-43.2	22.4	-70.8
						CHANNELS 3  Xrotation Yrotation Zrotation
						JOINT left_shoulder
						{
							OFFSET	-93.9	-5.79999	48.7
							CHANNELS 3  Xrotation Yrotation Zrotation
							JOINT left_elbow
							{
								OFFSET	-291.4	-30.8	15.2
								CHANNELS 3  Xrotation Yrotation Zrotation
								JOINT left_lowarm_twist
								{
									OFFSET	-110.7	-3.89999	13.6
									CHANNELS 3  Xrotation Yrotation Zrotation
									JOINT left_hand
									{
										OFFSET	-110.7	-3.89999	13.6
										CHANNELS 3  Xrotation Yrotation Zrotation
										JOINT left_ee
										{
											OFFSET	-80.8	-5.10001	12.1
											CHANNELS 3  Xrotation Yrotation Zrotation
											End Site
											{
												OFFSET	1	0	0
											}
										}
									}
								}
							}
						}
					}
					JOINT right_clavicle
					{
						OFFSET	43.2	22.4	-70.8
						CHANNELS 3  Xrotation Yrotation Zrotation
						JOINT right_shoulder
						{
							OFFSET	93.9	-5.79999	48.7
							CHANNELS 3  Xrotation Yrotation Zrotation
							JOINT right_elbow
							{
								OFFSET	291.4	-30.8	15.2
								CHANNELS 3  Xrotation Yrotation Zrotation
								JOINT right_lowarm_twist
								{
									OFFSET	110.7	-3.89999	13.6
									CHANNELS 3  Xrotation Yrotation Zrotation
									JOINT right_hand
									{
										OFFSET	110.7	-3.89999	13.6
										CHANNELS 3  Xrotation Yrotation Zrotation
										JOINT right_ee
										{
											OFFSET	80.8	-5.10001	12.1
											CHANNELS 3  Xrotation Yrotation Zrotation
											End Site
											{
												OFFSET	1	0	0
											}
										}
									}
								}
							}
						}
					}
				}
			}
		}
	}
	JOINT left_hip
	{
		OFFSET	-82.8	-127.5	0.300001
		CHANNELS 3  Xrotation Yrotation Zrotation
		JOINT left_knee
		{
			OFFSET	-28.2	-396.7	2.2
			CHANNELS 3  Xrotation Yrotation Zrotation
			JOINT left_ankle
			{
				OFFSET	-11.7	-411.3	35.4
				CHANNELS 3  Xrotation Yrotation Zrotation
				JOINT left_toes
				{
					OFFSET	0	-60	-88.6
					CHANNELS 3  Xrotation Yrotation Zrotation
					JOINT left_foot_ee
					{
						OFFSET	-22.5	-16.5	-42.2
						CHANNELS 3  Xrotation Yrotation Zrotation
						End Site
						{
							OFFSET	1	0	0
						}
					}
				}
			}
		}
	}
	JOINT right_hip
	{
		OFFSET	82.8	-127.5	0.300001
		CHANNELS 3  Xrotation Yrotation Zrotation
		JOINT right_knee
		{
			OFFSET	28.2	-396.7	2.2
			CHANNELS 3  Xrotation Yrotation Zrotation
			JOINT right_ankle
			{
				OFFSET	11.7	-411.3	35.4
				CHANNELS 3  Xrotation Yrotation Zrotation
				JOINT right_toes
				{
					OFFSET	0	-60	-88.6
					CHANNELS 3  Xrotation Yrotation Zrotation
					JOINT right_foot_ee
					{
						OFFSET	22.5	-16.5	-42.2
						CHANNELS 3  Xrotation Yrotation Zrotation
						End Site
						{
							OFFSET	1	0	0
						}
					}
				}
			}
		}
	}
}
MOTION
Frames: 7
Frame Time: 0.02
2428.978944 756.653 -1472.83040132 141.194722424 78.4659485784 -144.72670408 -0.793315 0.6343 3.26316 -0.787492 0.425487 3.29686 -0.758383 -0.320875 3.30867 -0.773599 0.205398 3.31783 -13.8254 15.2494 -15.8386 -14.3011 38.6618 -10.125 -0.0 0.0 -0.0 -7.79732 22.9882 -8.27576 -13.6594 -45.6956 62.7549 0.572714 -15.8391 0.0796705 24.8926 0.195778 -3.14887 0.057851 28.4843 11.4846 -0.0 0.0 -0.0 11.021 0.734351 -21.8275 -6.29554 21.3897 -64.6248 1.94133 43.8762 -0.781973 -0.355769 0.0126712 -0.0436681 6.87361 19.1397 -40.3514 0.0 0.0 0.0 2.40826 14.3632 -7.68056 -37.0364 -0.289069 5.57891 28.6232 12.1926 -3.75895 -40.035 0.0 0.0 -0.0 0.0 -0.0 1.56322 12.0501 -6.87642 -3.66043 -0.133309 -0.54585 22.0966 -5.01957 2.98886 -40.2238 0.0 0.0 0.0 0.0 0.0 
2423.31637273 764.243 -1480.56361617 130.087189918 81.1673820256 -133.114627889 -0.863698 0.758134 3.21148 -0.85813 0.552354 3.25315 -0.821942 -0.190891 3.29414 -0.83693 0.331465 3.28298 -14.0884 15.9518 -11.5958 -14.9317 37.3871 -5.584 -0.0 0.0 -0.0 -7.3388 22.4277 -7.7995 -15.6718 -44.8753 62.3848 0.671523 -18.3999 0.108764 27.7172 0.13125 -3.50389 0.171416 28.9903 12.2842 -0.0 0.0 -0.0 11.138 1.10657 -22.0976 -6.058 21.28 -64.9427 2.09614 46.0727 -0.891411 -0.0860355 0.00303926 -0.0105674 6.28412 20.3281 -34.7086 0.0 0.0 0.0 7.76389 11.8086 -9.2053 -36.5015 -0.259326 5.50229 29.6291 12.1195 -3.86895 -40.2013 0.0 0.0 -0.0 0.0 -0.0 0.98239 14.8876 -7.27075 -0.53386 -0.0216142 -0.0790753 16.7741 -4.62406 2.32579 -40.0418 0.0 0.0 0.0 0.0 0.0 
2421.09721743 762.361 -1479.27266826 135.826895638 81.0207581789 -138.815916392 -0.755501 0.814321 3.1894 -0.750049 0.60983 3.23469 -0.710935 -0.124263 3.28927 -0.725812 0.396492 3.26767 -13.7696 15.9296 -10.8989 -14.5716 36.959 -5.04658 -0.0 0.0 -0.0 -6.69795 21.0606 -7.29193 -16.6037 -44.0336 61.4713 0.656231 -18.0083 0.103987 28.8214 0.101275 -3.64176 0.33569 29.1019 13.2288 -0.0 0.0 -0.0 11.2055 0.889967 -22.2279 -6.04904 21.3508 -65.0094 2.11822 46.3725 -0.907352 -0.0302445 0.00106647 -0.00371535 6.05868 20.1292 -33.0945 0.0 0.0 0.0 9.84407 11.4272 -10.3806 -33.5474 -0.108072 5.07445 28.0286 8.73684 -3.67686 -40.2122 0.0 0.0 -0.0 0.0 -0.0 0.615751 16.1664 -7.21932 1.64038 0.0710173 0.241691 15.536 -5.69849 2.16377 -39.6895 0.0 0.0 0.0 0.0 0.0 
2404.00961392 768.6 -1488.12222974 152.584534293 83.7877814418 -154.627472649 -0.515062 0.46415 3.21352 -0.509354 0.258835 3.23651 -0.490966 -0.455087 3.21481 -0.505382 0.0580666 3.24631 -11.5233 16.348 -8.04263 -12.046 36.1137 -3.00046 -0.0 0.0 -0.0 -7.2125 20.3981 -8.27661 -16.1543 -43.3631 62.1525 0.800578 -21.6323 0.152955 31.2462 0.026158 -3.94235 0.99496 29.4158 17.0071 -0.0 0.0 -0.0 11.4656 0.384251 -22.7475 -6.20489 22.0767 -65.5368 1.87154 42.8295 -0.734059 -0.772512 0.0278588 -0.0947206 5.30149 20.4738 -27.1981 0.0 0.0 0.0 12.7128 9.41285 -11.6692 -25.436 0.19165 3.86674 18.9889 2.16732 -2.61466 -40.1757 0.0 0.0 -0.0 0.0 -0.0 2.22002 15.9395 -8.47776 5.15764 0.246486 0.752636 12.3998 -6.65749 1.7477 -39.9592 0.0 0.0 0.0 0.0 0.0 
2403.80286082 768.6 -1480.23610985 156.716450409 82.7586762161 -158.787837222 -0.515062 0.46415 3.21352 -0.509354 0.258835 3.23651 -0.490966 -0.455087 3.21481 -0.505382 0.0580666 3.24631 -11.5233 16.348 -8.04263 -12.046 36.1137 -3.00046 -0.0 0.0 -0.0 -7.2125 20.3981 -8.27661 -16.1543 -43.3631 62.1525 0.800578 -21.6323 0.152955 31.2462 0.026158 -3.94235 0.99496 29.4158 17.0071 -0.0 0.0 -0.0 11.4656 0.384251 -22.7475 -6.20489 22.0767 -65.5368 1.87154 42.8295 -0.734059 -0.772512 0.0278588 -0.0947206 5.30149 20.4738 -27.1981 0.0 0.0 0.0 12.7128 9.41285 -11.6692 -25.436 0.19165 3.86674 18.9889 2.16732 -2.61466 -40.1757 0.0 0.0 -0.0 0.0 -0.0 2.22002 15.9395 -8.47776 5.15764 0.246486 0.752636 12.3998 -6.65749 1.7477 -39.9592 0.0 0.0 0.0 0.0 0.0 
2403.81169111 768.6 -1480.75742916 156.480210515 82.8277022224 -158.549716171 -0.515062 0.46415 3.21352 -0.509354 0.258835 3.23651 -0.490966 -0.455087 3.21481 -0.505382 0.0580666 3.24631 -11.5233 16.348 -8.04263 -12.046 36.1137 -3.00046 -0.0 0.0 -0.0 -7.2125 20.3981 -8.27661 -16.1543 -43.3631 62.1525 0.800578 -21.6323 0.152955 31.2462 0.026158 -3.94235 0.99496 29.4158 17.0071 -0.0 0.0 -0.0 11.4656 0.384251 -22.7475 -6.20489 22.0767 -65.5368 1.87154 42.8295 -0.734059 -0.772512 0.0278588 -0.0947206 5.30149 20.4738 -27.1981 0.0 0.0 0.0 12.7128 9.41285 -11.6692 -25.436 0.19165 3.86674 18.9889 2.16732 -2.61466 -40.1757 0.0 0.0 -0.0 0.0 -0.0 2.22002 15.9395 -8.47776 5.15764 0.246486 0.752636 12.3998 -6.65749 1.7477 -39.9592 0.0 0.0 0.0 0.0 0.0 
2357.86475266 748.732 -1535.51248035 88.583449223 88.0787116559 -88.9043935285 0.180844 0.12436 2.56456 0.184502 -0.0390273 2.56728 0.184165 -0.570068 2.50353 0.175458 -0.167664 2.5621 -15.8543 15.0369 -19.5696 -16.4506 40.0273 -13.0512 -0.0 0.0 -0.0 -5.31668 16.2401 -6.51182 -13.9561 -53.3055 56.5956 0.726761 -19.7997 0.12684 31.1255 0.0302 -3.92745 2.29842 28.888 24.4874 -0.0 0.0 -0.0 9.76946 -6.39311 -18.7681 -14.8744 19.845 -65.5708 1.43606 35.4253 -0.458677 -0.902878 0.032686 -0.110668 7.51139 25.2674 -40.6218 0.0 0.0 0.0 5.99389 8.14922 -8.44586 -12.5961 0.310373 1.90426 30.8446 -18.8911 -4.38375 -39.3629 0.0 0.0 -0.0 0.0 -0.0 9.01395 11.9716 -10.669 -17.267 -0.318162 -2.62066 38.6183 -21.1393 4.92551 -28.6607 0.0 0.0 0.0 0.0 0.0 
